<?xml version="1.0" encoding="UTF-8"?>
<svg width="12px" height="12px" viewBox="0 0 12 12" version="1.1" xmlns="http://www.w3.org/2000/svg" xmlns:xlink="http://www.w3.org/1999/xlink">
    <!-- Generator: Sketch 46.1 (44463) - http://www.bohemiancoding.com/sketch -->
    <title>Fill 188</title>
    <desc>Created with Sketch.</desc>
    <defs></defs>
    <g id="Page-1" stroke="none" stroke-width="1" fill="none" fill-rule="evenodd">
        <g id="04-0-sampleApproval" transform="translate(-725.000000, -496.000000)" fill="#D0021B">
            <g id="Group-8" transform="translate(414.000000, 398.000000)">
                <path d="M317.94264,104 L322.804505,99.1381351 C323.065165,98.8774756 323.065165,98.456154 322.804505,98.1954946 C322.543846,97.9348351 322.122524,97.9348351 321.861865,98.1954946 L317,103.05736 L312.138135,98.1954946 C311.877476,97.9348351 311.456154,97.9348351 311.195495,98.1954946 C310.934835,98.456154 310.934835,98.8774756 311.195495,99.1381351 L316.05736,104 L311.195495,108.861865 C310.934835,109.122524 310.934835,109.543846 311.195495,109.804505 C311.325491,109.934502 311.496153,109.999833 311.666815,109.999833 C311.837477,109.999833 312.008139,109.934502 312.138135,109.804505 L317,104.94264 L321.861865,109.804505 C321.991861,109.934502 322.162523,109.999833 322.333185,109.999833 C322.503847,109.999833 322.674509,109.934502 322.804505,109.804505 C323.065165,109.543846 323.065165,109.122524 322.804505,108.861865 L317.94264,104 Z" id="Fill-188"></path>
            </g>
        </g>
    </g>
</svg>