<svg xmlns="http://www.w3.org/2000/svg" width="21" height="26" viewBox="0 0 21 26">
    <g fill="none" fill-rule="nonzero">
        <path fill="#7BBB49" d="M10.572 12.231c2.79 0 5.052-2.738 5.052-6.115 0-3.378-.742-6.116-5.052-6.116C6.263 0 5.52 2.738 5.52 6.116c0 3.377 2.262 6.115 5.052 6.115z"/>
        <path stroke="#7BBB49" d="M1.003 21.788c-.003-.487-.006-.137 0 0zM19.879 22.038c.01-.15.003-1.046 0 0z"/>
        <path stroke="#7BBB49" d="M19.868 21.33c-.092-5.846-.855-7.512-6.692-8.567 0 0-.821 1.048-2.736 1.048-1.915 0-2.737-1.048-2.737-1.048-5.773 1.043-6.582 2.685-6.689 8.377-.008.465-.012.49-.014.436v.614s1.39 2.805 9.44 2.805c8.049 0 9.438-2.805 9.438-2.805v-.454c0 .033-.004-.032-.01-.406z"/>
    </g>
</svg>
