<svg xmlns="http://www.w3.org/2000/svg" width="22" height="25" viewBox="0 0 22 25">
    <g fill="#7BBB49" fill-rule="nonzero">
        <circle cx="16.143" cy="16.525" r="1"/>
        <path d="M20.442 17.29a.955.955 0 0 0 .955-.956V12.8a3.825 3.825 0 0 0-3.82-3.82h-1.149V5.61c0-3.093-2.571-5.61-5.731-5.61-3.16 0-5.732 2.517-5.732 5.61v3.37H3.821A3.825 3.825 0 0 0 0 12.8v7.833a3.825 3.825 0 0 0 3.82 3.82h13.756a3.825 3.825 0 0 0 3.821-3.82.955.955 0 1 0-1.91 0c0 1.053-.857 1.91-1.91 1.91H3.82a1.913 1.913 0 0 1-1.91-1.91V12.8c0-1.053.856-1.91 1.91-1.91h13.755c1.054 0 1.91.857 1.91 1.91v3.534c0 .528.428.956.956.956zm-5.924-8.31H6.876V5.61c0-2.04 1.714-3.7 3.82-3.7 2.108 0 3.822 1.66 3.822 3.7v3.37z"/>
        <circle cx="8.931" cy="16.525" r="1"/>
        <circle cx="5.349" cy="16.525" r="1"/>
        <circle cx="12.513" cy="16.525" r="1"/>
    </g>
</svg>
